<?xml version="1.0" standalone="no"?>
<!DOCTYPE svg PUBLIC "-//W3C//DTD SVG 20010904//EN"
 "http://www.w3.org/TR/2001/REC-SVG-20010904/DTD/svg10.dtd">
<svg version="1.0" xmlns="http://www.w3.org/2000/svg"
 width="100.000000pt" height="100.000000pt" viewBox="0 0 100.000000 100.000000"
 preserveAspectRatio="xMidYMid meet">
<metadata>
Created by potrace 1.11, written by Peter Selinger 2001-2013
</metadata>
<g transform="translate(0.000000,100.000000) scale(0.100000,-0.100000)"
fill="#000000" stroke="none">
<path d="M261 964 c-46 -19 -64 -43 -90 -113 -20 -56 -46 -81 -69 -67 -24 15
-67 14 -84 -1 -30 -27 -22 -62 24 -106 122 -116 271 -104 291 22 7 40 15 50
27 31 26 -41 -3 -103 -100 -212 -60 -66 -151 -262 -171 -363 -5 -27 -12 -58
-15 -67 -3 -10 -1 -18 4 -18 5 0 14 28 20 62 22 118 93 259 194 385 35 43 70
89 79 103 36 57 29 132 -13 143 -26 7 -58 -25 -51 -51 12 -49 -56 -97 -119
-83 -66 15 -158 81 -158 114 0 19 23 28 41 16 26 -16 75 -10 95 12 10 12 28
46 39 77 23 64 59 96 107 94 47 -1 74 -36 82 -109 10 -90 54 -135 110 -113 29
11 40 39 37 98 -2 77 45 116 124 100 66 -13 128 -10 167 6 52 22 94 20 119 -5
52 -52 -32 -156 -155 -190 -28 -8 -56 -34 -132 -127 -54 -64 -203 -223 -333
-352 -129 -129 -208 -213 -175 -185 181 151 367 333 499 491 27 32 58 68 68
79 11 11 26 30 34 43 9 12 25 22 37 22 35 0 119 45 158 85 41 42 55 86 39 127
-22 57 -82 73 -169 44 -41 -14 -67 -16 -110 -10 -103 13 -117 13 -149 -7 -39
-24 -45 -38 -52 -119 -5 -57 -9 -65 -28 -68 -28 -4 -49 29 -57 91 -8 66 -31
106 -71 123 -42 17 -51 17 -94 -2z"/>
<path d="M70 20 c0 -5 5 -10 11 -10 5 0 7 5 4 10 -3 6 -8 10 -11 10 -2 0 -4
-4 -4 -10z"/>
</g>
</svg>
